<?xml version="1.0" encoding="UTF-8" standalone="no"?>
<!DOCTYPE svg PUBLIC "-//W3C//DTD SVG 1.1//EN"
 "http://www.w3.org/Graphics/SVG/1.1/DTD/svg11.dtd">
<!-- Generated by graphviz version 2.48.0 (0)
 -->
<!-- Title: WIBARABFeatureDatabaseModel Pages: 1 -->
<svg width="1659pt" height="606pt"
 viewBox="0.00 0.00 1659.00 606.00" xmlns="http://www.w3.org/2000/svg" xmlns:xlink="http://www.w3.org/1999/xlink">
<g id="graph0" class="graph" transform="scale(1 1) rotate(0) translate(4 602)">
<title>WIBARABFeatureDatabaseModel</title>
<polygon fill="white" stroke="transparent" points="-4,4 -4,-602 1655,-602 1655,4 -4,4"/>
<text text-anchor="middle" x="825.5" y="-7.8" font-family="Times,serif" font-size="14.00">WIBARAB Feature Database Model</text>
<!-- Feature -->
<g id="node1" class="node">
<title>Feature</title>
<g id="a_node1"><a xlink:href="#Feature" xlink:title="{Feature|+ Name\l+ \l}">
<polygon fill="none" stroke="black" points="207,-318.5 207,-361.5 261,-361.5 261,-318.5 207,-318.5"/>
<text text-anchor="middle" x="234" y="-351.1" font-family="Bitstream Vera Sans" font-size="8.00">Feature</text>
<polyline fill="none" stroke="black" points="207,-344.5 261,-344.5 "/>
<text text-anchor="start" x="215" y="-334.1" font-family="Bitstream Vera Sans" font-size="8.00">+ Name</text>
<text text-anchor="start" x="215" y="-325.1" font-family="Bitstream Vera Sans" font-size="8.00">+ </text>
</a>
</g>
</g>
<!-- FeatureTypes -->
<g id="node2" class="node">
<title>FeatureTypes</title>
<g id="a_node2"><a xlink:href="#FeatureTypes" xlink:title="{Feature Value|+ Identifier\l+ Name\l+ Description\l}">
<polygon fill="none" stroke="black" points="293,-37 293,-89 365,-89 365,-37 293,-37"/>
<text text-anchor="middle" x="329" y="-78.6" font-family="Bitstream Vera Sans" font-size="8.00">Feature Value</text>
<polyline fill="none" stroke="black" points="293,-72 365,-72 "/>
<text text-anchor="start" x="301" y="-61.6" font-family="Bitstream Vera Sans" font-size="8.00">+ Identifier</text>
<text text-anchor="start" x="301" y="-52.6" font-family="Bitstream Vera Sans" font-size="8.00">+ Name</text>
<text text-anchor="start" x="301" y="-43.6" font-family="Bitstream Vera Sans" font-size="8.00">+ Description</text>
</a>
</g>
</g>
<!-- Feature&#45;&gt;FeatureTypes -->
<g id="edge6" class="edge">
<title>Feature&#45;&gt;FeatureTypes</title>
<g id="a_edge6"><a xlink:href="#FeatureHasPossibleRealisations" xlink:title="has possible realisations">
<path fill="none" stroke="black" d="M241.14,-318.33C257.33,-271.45 296.99,-156.65 317.02,-98.69"/>
<polygon fill="black" stroke="black" points="320.33,-99.82 320.29,-89.22 313.71,-97.53 320.33,-99.82"/>
</a>
</g>
<g id="a_edge6&#45;label"><a xlink:href="#FeatureHasPossibleRealisations" xlink:title="has possible realisations">
<text text-anchor="middle" x="338" y="-208.6" font-family="Bitstream Vera Sans" font-size="8.00">has possible realisations</text>
</a>
</g>
</g>
<!-- FeatureRealisation -->
<g id="node3" class="node">
<title>FeatureRealisation</title>
<g id="a_node3"><a xlink:href="#FeatureRealisation" xlink:title="{Feature Realisation|+ Note\l}">
<polygon fill="none" stroke="black" points="377,-443.5 377,-479.5 471,-479.5 471,-443.5 377,-443.5"/>
<text text-anchor="middle" x="424" y="-468.6" font-family="Bitstream Vera Sans" font-size="8.00">Feature Realisation</text>
<polyline fill="none" stroke="black" points="377,-461.5 471,-461.5 "/>
<text text-anchor="start" x="385" y="-450.6" font-family="Bitstream Vera Sans" font-size="8.00">+ Note</text>
</a>
</g>
</g>
<!-- FeatureRealisation&#45;&gt;Feature -->
<g id="edge8" class="edge">
<title>FeatureRealisation&#45;&gt;Feature</title>
<g id="a_edge8"><a xlink:href="#featureRealisationRepresentsAnInstanceOfFeature" xlink:title="is an instance of">
<path fill="none" stroke="gray" stroke-dasharray="5,2" d="M376.76,-455.35C320.38,-448.12 231.17,-432.86 211,-407 202.79,-396.48 205.88,-382.82 212.08,-370.66"/>
<polygon fill="gray" stroke="gray" points="215.27,-372.13 217.28,-361.72 209.22,-368.6 215.27,-372.13"/>
</a>
</g>
<g id="a_edge8&#45;label"><a xlink:href="#featureRealisationRepresentsAnInstanceOfFeature" xlink:title="is an instance of">
<text text-anchor="middle" x="245" y="-400.6" font-family="Bitstream Vera Sans" font-size="8.00" fill="gray">is an instance of</text>
</a>
</g>
</g>
<!-- FeatureRealisation&#45;&gt;Feature -->
<g id="edge9" class="edge">
<title>FeatureRealisation&#45;&gt;Feature</title>
<g id="a_edge9"><a xlink:href="#featureRealisationRepresentsAnInstanceOfFeature" xlink:title="is an instance of">
<path fill="none" stroke="black" d="M396.78,-443.38C363.34,-422.35 306.53,-386.61 269.64,-363.41"/>
<polygon fill="black" stroke="black" points="271.5,-360.45 261.17,-358.09 267.77,-366.38 271.5,-360.45"/>
</a>
</g>
<g id="a_edge9&#45;label"><a xlink:href="#featureRealisationRepresentsAnInstanceOfFeature" xlink:title="is an instance of">
<text text-anchor="middle" x="369" y="-400.6" font-family="Bitstream Vera Sans" font-size="8.00">is an instance of</text>
</a>
</g>
</g>
<!-- FeatureRealisation&#45;&gt;FeatureTypes -->
<g id="edge7" class="edge">
<title>FeatureRealisation&#45;&gt;FeatureTypes</title>
<g id="a_edge7"><a xlink:href="#featureRealisationIsOfType" xlink:title="is of type">
<path fill="none" stroke="black" d="M471.35,-444.78C508.02,-429.82 556.28,-403.36 579,-362 588.42,-344.86 586.41,-336.1 579,-318 556.85,-263.91 431.24,-151.33 366.94,-96.04"/>
<polygon fill="black" stroke="black" points="368.91,-93.12 359.04,-89.27 364.35,-98.43 368.91,-93.12"/>
</a>
</g>
<g id="a_edge7&#45;label"><a xlink:href="#featureRealisationIsOfType" xlink:title="is of type">
<text text-anchor="middle" x="574" y="-275.6" font-family="Bitstream Vera Sans" font-size="8.00">is of type</text>
</a>
</g>
</g>
<!-- Source -->
<g id="node5" class="node">
<title>Source</title>
<g id="a_node5"><a xlink:href="#Source" xlink:title="{Source|+ period of collection\l}">
<polygon fill="none" stroke="gray" points="784,-322 784,-358 888,-358 888,-322 784,-322"/>
<text text-anchor="middle" x="836" y="-347.1" font-family="Bitstream Vera Sans" font-size="8.00">Source</text>
<polyline fill="none" stroke="gray" points="784,-340 888,-340 "/>
<text text-anchor="start" x="792" y="-329.1" font-family="Bitstream Vera Sans" font-size="8.00">+ period of collection</text>
</a>
</g>
</g>
<!-- FeatureRealisation&#45;&gt;Source -->
<g id="edge11" class="edge">
<title>FeatureRealisation&#45;&gt;Source</title>
<g id="a_edge11"><a xlink:href="#featureRealisationHasSource" xlink:title="asserted by">
<path fill="none" stroke="black" d="M471.23,-452.02C519.82,-442.8 597.45,-426.73 663,-407 705.49,-394.21 752.45,-376.03 786.71,-361.98"/>
<polygon fill="black" stroke="black" points="788.11,-365.19 796.02,-358.14 785.44,-358.72 788.11,-365.19"/>
</a>
</g>
<g id="a_edge11&#45;label"><a xlink:href="#featureRealisationHasSource" xlink:title="asserted by">
<text text-anchor="middle" x="710.5" y="-400.6" font-family="Bitstream Vera Sans" font-size="8.00">asserted by</text>
</a>
</g>
</g>
<!-- Constraint -->
<g id="node12" class="node">
<title>Constraint</title>
<g id="a_node12"><a xlink:href="#Constraint" xlink:title="{Realisation Constraint|+ Constraint Type\l+ gender constraint\l+ age group\l+ academic level\l+ occupational group\l+ lexical domain\l}">
<polygon fill="none" stroke="black" points="0,-23.5 0,-102.5 106,-102.5 106,-23.5 0,-23.5"/>
<text text-anchor="middle" x="53" y="-92.1" font-family="Bitstream Vera Sans" font-size="8.00">Realisation Constraint</text>
<polyline fill="none" stroke="black" points="0,-85.5 106,-85.5 "/>
<text text-anchor="start" x="8" y="-75.1" font-family="Bitstream Vera Sans" font-size="8.00">+ Constraint Type</text>
<text text-anchor="start" x="8" y="-66.1" font-family="Bitstream Vera Sans" font-size="8.00">+ gender constraint</text>
<text text-anchor="start" x="8" y="-57.1" font-family="Bitstream Vera Sans" font-size="8.00">+ age group</text>
<text text-anchor="start" x="8" y="-48.1" font-family="Bitstream Vera Sans" font-size="8.00">+ academic level</text>
<text text-anchor="start" x="8" y="-39.1" font-family="Bitstream Vera Sans" font-size="8.00">+ occupational group</text>
<text text-anchor="start" x="8" y="-30.1" font-family="Bitstream Vera Sans" font-size="8.00">+ lexical domain</text>
</a>
</g>
</g>
<!-- FeatureRealisation&#45;&gt;Constraint -->
<g id="edge10" class="edge">
<title>FeatureRealisation&#45;&gt;Constraint</title>
<g id="a_edge10"><a xlink:href="#featureRealisationHasConstraint" xlink:title="has constraint">
<path fill="none" stroke="black" d="M376.94,-454.86C317.03,-446.83 217.94,-430.44 190,-407 99.92,-331.43 68.59,-188.13 58.07,-112.91"/>
<polygon fill="black" stroke="black" points="61.51,-112.21 56.72,-102.76 54.57,-113.13 61.51,-112.21"/>
</a>
</g>
<g id="a_edge10&#45;label"><a xlink:href="#featureRealisationHasConstraint" xlink:title="has constraint">
<text text-anchor="middle" x="131.5" y="-275.6" font-family="Bitstream Vera Sans" font-size="8.00">has constraint</text>
</a>
</g>
</g>
<!-- Dialect -->
<g id="node4" class="node">
<title>Dialect</title>
<g id="a_node4"><a xlink:href="#Dialect" xlink:title="{Dialect|+ ID\l+ Name\l+ type of community\l}">
<polygon fill="none" stroke="black" points="567.5,-184.5 567.5,-236.5 668.5,-236.5 668.5,-184.5 567.5,-184.5"/>
<text text-anchor="middle" x="618" y="-226.1" font-family="Bitstream Vera Sans" font-size="8.00">Dialect</text>
<polyline fill="none" stroke="black" points="567.5,-219.5 668.5,-219.5 "/>
<text text-anchor="start" x="575.5" y="-209.1" font-family="Bitstream Vera Sans" font-size="8.00">+ ID</text>
<text text-anchor="start" x="575.5" y="-200.1" font-family="Bitstream Vera Sans" font-size="8.00">+ Name</text>
<text text-anchor="start" x="575.5" y="-191.1" font-family="Bitstream Vera Sans" font-size="8.00">+ type of community</text>
</a>
</g>
</g>
<!-- Dialect&#45;&gt;FeatureRealisation -->
<g id="edge14" class="edge">
<title>Dialect&#45;&gt;FeatureRealisation</title>
<g id="a_edge14"><a xlink:href="#DialectExhibitsFeatureRealisation" xlink:title="exhibits">
<path fill="none" stroke="black" d="M598.41,-236.64C561.2,-284.4 480.71,-387.71 443.54,-435.42"/>
<polygon fill="black" stroke="black" points="440.72,-433.35 437.33,-443.39 446.24,-437.65 440.72,-433.35"/>
</a>
</g>
<g id="a_edge14&#45;label"><a xlink:href="#DialectExhibitsFeatureRealisation" xlink:title="exhibits">
<text text-anchor="middle" x="550" y="-338.1" font-family="Bitstream Vera Sans" font-size="8.00">exhibits</text>
</a>
</g>
</g>
<!-- Place -->
<g id="node9" class="node">
<title>Place</title>
<g id="a_node9"><a xlink:href="#Place" xlink:title="{Place|+ Geonames ID\l}">
<polygon fill="none" stroke="black" points="668,-45 668,-81 748,-81 748,-45 668,-45"/>
<text text-anchor="middle" x="708" y="-70.1" font-family="Bitstream Vera Sans" font-size="8.00">Place</text>
<polyline fill="none" stroke="black" points="668,-63 748,-63 "/>
<text text-anchor="start" x="676" y="-52.1" font-family="Bitstream Vera Sans" font-size="8.00">+ Geonames ID</text>
</a>
</g>
</g>
<!-- Dialect&#45;&gt;Place -->
<g id="edge12" class="edge">
<title>Dialect&#45;&gt;Place</title>
<g id="a_edge12"><a xlink:href="#dialectIsSpokenAtLocation" xlink:title="is spoken at">
<path fill="none" stroke="black" d="M633.47,-184.49C649.75,-158.18 675.25,-116.95 691.79,-90.2"/>
<polygon fill="black" stroke="black" points="694.96,-91.74 697.24,-81.39 689.01,-88.05 694.96,-91.74"/>
</a>
</g>
<g id="a_edge12&#45;label"><a xlink:href="#dialectIsSpokenAtLocation" xlink:title="is spoken at">
<text text-anchor="middle" x="684.5" y="-141.6" font-family="Bitstream Vera Sans" font-size="8.00">is spoken at</text>
</a>
</g>
</g>
<!-- Person -->
<g id="node10" class="node">
<title>Person</title>
<g id="a_node10"><a xlink:href="#Person" xlink:title="{Person|}">
<polygon fill="none" stroke="black" points="532,-45 532,-81 586,-81 586,-45 532,-45"/>
<text text-anchor="middle" x="559" y="-70.1" font-family="Bitstream Vera Sans" font-size="8.00">Person</text>
<polyline fill="none" stroke="black" points="532,-63 586,-63 "/>
<text text-anchor="middle" x="559" y="-52.1" font-family="Bitstream Vera Sans" font-size="8.00"> </text>
</a>
</g>
</g>
<!-- Dialect&#45;&gt;Person -->
<g id="edge13" class="edge">
<title>Dialect&#45;&gt;Person</title>
<g id="a_edge13"><a xlink:href="#dialectHasPersonInCharge" xlink:title="has person in charge">
<path fill="none" stroke="black" d="M576.52,-184.25C564.38,-174.56 552.61,-162.33 546,-148 537.69,-129.96 541.71,-107.67 547.39,-90.59"/>
<polygon fill="black" stroke="black" points="550.68,-91.8 550.85,-81.2 544.11,-89.38 550.68,-91.8"/>
</a>
</g>
<g id="a_edge13&#45;label"><a xlink:href="#dialectHasPersonInCharge" xlink:title="has person in charge">
<text text-anchor="middle" x="589.5" y="-141.6" font-family="Bitstream Vera Sans" font-size="8.00">has person in charge</text>
</a>
</g>
</g>
<!-- Source&#45;&gt;Dialect -->
<g id="edge15" class="edge">
<title>Source&#45;&gt;Dialect</title>
<g id="a_edge15"><a xlink:href="#sourceProvidesInformationOn" xlink:title="provides information on">
<path fill="none" stroke="black" d="M783.93,-330.11C748.57,-322.08 702.2,-307.49 668,-282 655.1,-272.38 644.23,-258.45 635.96,-245.51"/>
<polygon fill="black" stroke="black" points="638.83,-243.5 630.65,-236.77 632.85,-247.13 638.83,-243.5"/>
</a>
</g>
<g id="a_edge15&#45;label"><a xlink:href="#sourceProvidesInformationOn" xlink:title="provides information on">
<text text-anchor="middle" x="716.5" y="-275.6" font-family="Bitstream Vera Sans" font-size="8.00">provides information on</text>
</a>
</g>
</g>
<!-- BibliographicItem -->
<g id="node6" class="node">
<title>BibliographicItem</title>
<g id="a_node6"><a xlink:href="#BibliographicItem" xlink:title="{Bibligraphic Item|+ ID\l}">
<polygon fill="none" stroke="gray" points="1255.5,-45 1255.5,-81 1340.5,-81 1340.5,-45 1255.5,-45"/>
<text text-anchor="middle" x="1298" y="-70.1" font-family="Bitstream Vera Sans" font-size="8.00">Bibligraphic Item</text>
<polyline fill="none" stroke="gray" points="1255.5,-63 1340.5,-63 "/>
<text text-anchor="start" x="1263.5" y="-52.1" font-family="Bitstream Vera Sans" font-size="8.00">+ ID</text>
</a>
</g>
</g>
<!-- Source&#45;&gt;BibliographicItem -->
<g id="edge1" class="edge">
<title>Source&#45;&gt;BibliographicItem</title>
<path fill="none" stroke="gray" stroke-dasharray="1,5" d="M872.09,-321.96C894.93,-310.97 924.95,-296.14 951,-282 1069.89,-217.45 1203.61,-128.52 1264.53,-87.04"/>
<polygon fill="gray" stroke="gray" points="1266.69,-89.8 1272.98,-81.27 1262.75,-84.02 1266.69,-89.8"/>
<text text-anchor="middle" x="1139" y="-208.6" font-family="Bitstream Vera Sans" font-size="8.00" fill="gray">has subclass</text>
</g>
<!-- Campaign -->
<g id="node7" class="node">
<title>Campaign</title>
<g id="a_node7"><a xlink:href="#Campaign" xlink:title="{Campaign|}">
<polygon fill="none" stroke="gray" points="820,-45 820,-81 878,-81 878,-45 820,-45"/>
<text text-anchor="middle" x="849" y="-70.1" font-family="Bitstream Vera Sans" font-size="8.00">Campaign</text>
<polyline fill="none" stroke="gray" points="820,-63 878,-63 "/>
<text text-anchor="middle" x="849" y="-52.1" font-family="Bitstream Vera Sans" font-size="8.00"> </text>
</a>
</g>
</g>
<!-- Source&#45;&gt;Campaign -->
<g id="edge2" class="edge">
<title>Source&#45;&gt;Campaign</title>
<path fill="none" stroke="gray" stroke-dasharray="1,5" d="M836.81,-321.8C839,-275.5 845.03,-147.94 847.7,-91.49"/>
<polygon fill="gray" stroke="gray" points="851.21,-91.35 848.19,-81.2 844.22,-91.02 851.21,-91.35"/>
<text text-anchor="middle" x="870" y="-208.6" font-family="Bitstream Vera Sans" font-size="8.00" fill="gray">has subclass</text>
</g>
<!-- PersonalCommunication -->
<g id="node8" class="node">
<title>PersonalCommunication</title>
<g id="a_node8"><a xlink:href="#PersonalCommunication" xlink:title="{Personal Communication|}">
<polygon fill="none" stroke="gray" points="959.5,-45 959.5,-81 1076.5,-81 1076.5,-45 959.5,-45"/>
<text text-anchor="middle" x="1018" y="-70.1" font-family="Bitstream Vera Sans" font-size="8.00">Personal Communication</text>
<polyline fill="none" stroke="gray" points="959.5,-63 1076.5,-63 "/>
<text text-anchor="middle" x="1018" y="-52.1" font-family="Bitstream Vera Sans" font-size="8.00"> </text>
</a>
</g>
</g>
<!-- Source&#45;&gt;PersonalCommunication -->
<g id="edge3" class="edge">
<title>Source&#45;&gt;PersonalCommunication</title>
<path fill="none" stroke="gray" stroke-dasharray="1,5" d="M855.53,-321.92C867.2,-311.15 881.86,-296.56 893,-282 942.06,-217.87 985.52,-132.52 1005.83,-90.15"/>
<polygon fill="gray" stroke="gray" points="1009.02,-91.6 1010.15,-81.07 1002.7,-88.6 1009.02,-91.6"/>
<text text-anchor="middle" x="982" y="-208.6" font-family="Bitstream Vera Sans" font-size="8.00" fill="gray">has subclass</text>
</g>
<!-- Group -->
<g id="node11" class="node">
<title>Group</title>
<g id="a_node11"><a xlink:href="#Group" xlink:title="{Speaker Group|+ Group Type\l}">
<polygon fill="none" stroke="black" points="1575,-561.5 1575,-597.5 1651,-597.5 1651,-561.5 1575,-561.5"/>
<text text-anchor="middle" x="1613" y="-586.6" font-family="Bitstream Vera Sans" font-size="8.00">Speaker Group</text>
<polyline fill="none" stroke="black" points="1575,-579.5 1651,-579.5 "/>
<text text-anchor="start" x="1583" y="-568.6" font-family="Bitstream Vera Sans" font-size="8.00">+ Group Type</text>
</a>
</g>
</g>
<!-- FullText -->
<g id="node13" class="node">
<title>FullText</title>
<g id="a_node13"><a xlink:href="#FullText" xlink:title="{Full Text|+ Quotation\l}">
<polygon fill="none" stroke="gray" points="1437,-561.5 1437,-597.5 1503,-597.5 1503,-561.5 1437,-561.5"/>
<text text-anchor="middle" x="1470" y="-586.6" font-family="Bitstream Vera Sans" font-size="8.00">Full Text</text>
<polyline fill="none" stroke="gray" points="1437,-579.5 1503,-579.5 "/>
<text text-anchor="start" x="1445" y="-568.6" font-family="Bitstream Vera Sans" font-size="8.00">+ Quotation</text>
</a>
</g>
</g>
<!-- OriginalSource -->
<g id="node14" class="node">
<title>OriginalSource</title>
<g id="a_node14"><a xlink:href="#OriginalSource" xlink:title="{Original Source|}">
<polygon fill="none" stroke="gray" points="1339.5,-443.5 1339.5,-479.5 1418.5,-479.5 1418.5,-443.5 1339.5,-443.5"/>
<text text-anchor="middle" x="1379" y="-468.6" font-family="Bitstream Vera Sans" font-size="8.00">Original Source</text>
<polyline fill="none" stroke="gray" points="1339.5,-461.5 1418.5,-461.5 "/>
<text text-anchor="middle" x="1379" y="-450.6" font-family="Bitstream Vera Sans" font-size="8.00"> </text>
</a>
</g>
</g>
<!-- FullText&#45;&gt;OriginalSource -->
<g id="edge4" class="edge">
<title>FullText&#45;&gt;OriginalSource</title>
<path fill="none" stroke="gray" stroke-dasharray="1,5" d="M1456.57,-561.38C1441.32,-541.94 1416.27,-510.01 1398.78,-487.71"/>
<polygon fill="gray" stroke="gray" points="1401.41,-485.39 1392.48,-479.69 1395.9,-489.71 1401.41,-485.39"/>
<text text-anchor="middle" x="1454" y="-518.6" font-family="Bitstream Vera Sans" font-size="8.00" fill="gray">has subclass</text>
</g>
<!-- Example -->
<g id="node15" class="node">
<title>Example</title>
<g id="a_node15"><a xlink:href="#Example" xlink:title="{Example|}">
<polygon fill="none" stroke="gray" points="1533,-45 1533,-81 1587,-81 1587,-45 1533,-45"/>
<text text-anchor="middle" x="1560" y="-70.1" font-family="Bitstream Vera Sans" font-size="8.00">Example</text>
<polyline fill="none" stroke="gray" points="1533,-63 1587,-63 "/>
<text text-anchor="middle" x="1560" y="-52.1" font-family="Bitstream Vera Sans" font-size="8.00"> </text>
</a>
</g>
</g>
<!-- FullText&#45;&gt;Example -->
<g id="edge5" class="edge">
<title>FullText&#45;&gt;Example</title>
<path fill="none" stroke="gray" stroke-dasharray="1,5" d="M1495.55,-561.26C1522.16,-541.03 1560,-504.81 1560,-462.5 1560,-462.5 1560,-462.5 1560,-209.5 1560,-168.29 1560,-120.51 1560,-91.27"/>
<polygon fill="gray" stroke="gray" points="1563.5,-91.02 1560,-81.02 1556.5,-91.02 1563.5,-91.02"/>
<text text-anchor="middle" x="1587" y="-338.1" font-family="Bitstream Vera Sans" font-size="8.00" fill="gray">has subclass</text>
</g>
<!-- OriginalSource&#45;&gt;Source -->
<g id="edge17" class="edge">
<title>OriginalSource&#45;&gt;Source</title>
<g id="a_edge17"><a xlink:href="#exampleTakenFrom" xlink:title="is taken from">
<path fill="none" stroke="black" d="M1339.07,-451.71C1245.28,-431.07 1010.37,-379.37 897.9,-354.62"/>
<polygon fill="black" stroke="black" points="898.58,-351.19 888.06,-352.46 897.07,-358.02 898.58,-351.19"/>
</a>
</g>
<g id="a_edge17&#45;label"><a xlink:href="#exampleTakenFrom" xlink:title="is taken from">
<text text-anchor="middle" x="1149" y="-400.6" font-family="Bitstream Vera Sans" font-size="8.00">is taken from</text>
</a>
</g>
</g>
<!-- OriginalSource&#45;&gt;BibliographicItem -->
<g id="edge16" class="edge">
<title>OriginalSource&#45;&gt;BibliographicItem</title>
<g id="a_edge16"><a xlink:href="#originalSourceTakenFrom" xlink:title="is taken from">
<path fill="none" stroke="black" d="M1375.52,-443.46C1362.85,-381.46 1319.14,-167.46 1303.56,-91.23"/>
<polygon fill="black" stroke="black" points="1306.99,-90.52 1301.56,-81.42 1300.13,-91.92 1306.99,-90.52"/>
</a>
</g>
<g id="a_edge16&#45;label"><a xlink:href="#originalSourceTakenFrom" xlink:title="is taken from">
<text text-anchor="middle" x="1368" y="-275.6" font-family="Bitstream Vera Sans" font-size="8.00">is taken from</text>
</a>
</g>
</g>
</g>
</svg>
