<?xml version="1.0" encoding="UTF-8" standalone="no"?>
<!DOCTYPE svg PUBLIC "-//W3C//DTD SVG 1.1//EN"
 "http://www.w3.org/Graphics/SVG/1.1/DTD/svg11.dtd">
<!-- Generated by graphviz version 2.48.0 (0)
 -->
<!-- Title: WIBARABFeatureDatabaseModel Pages: 1 -->
<svg width="1041pt" height="313pt"
 viewBox="0.00 0.00 1040.50 313.00" xmlns="http://www.w3.org/2000/svg" xmlns:xlink="http://www.w3.org/1999/xlink">
<g id="graph0" class="graph" transform="scale(1 1) rotate(0) translate(4 309)">
<title>WIBARABFeatureDatabaseModel</title>
<polygon fill="white" stroke="transparent" points="-4,4 -4,-309 1036.5,-309 1036.5,4 -4,4"/>
<text text-anchor="middle" x="516.25" y="-7.8" font-family="Times,serif" font-size="14.00">WIBARAB Feature Database Model</text>
<!-- Feature -->
<g id="node1" class="node">
<title>Feature</title>
<g id="a_node1"><a xlink:href="#Feature" xlink:title="{Feature}">
<polygon fill="none" stroke="black" points="0,-268.5 0,-304.5 54,-304.5 54,-268.5 0,-268.5"/>
<text text-anchor="middle" x="27" y="-284.6" font-family="Bitstream Vera Sans" font-size="8.00">Feature</text>
</a>
</g>
</g>
<!-- FeatureValue -->
<g id="node2" class="node">
<title>FeatureValue</title>
<g id="a_node2"><a xlink:href="#FeatureValue" xlink:title="{Feature Value}">
<polygon fill="none" stroke="black" points="104.5,-23.5 104.5,-59.5 175.5,-59.5 175.5,-23.5 104.5,-23.5"/>
<text text-anchor="middle" x="140" y="-39.6" font-family="Bitstream Vera Sans" font-size="8.00">Feature Value</text>
</a>
</g>
</g>
<!-- Feature&#45;&gt;FeatureValue -->
<g id="edge4" class="edge">
<title>Feature&#45;&gt;FeatureValue</title>
<g id="a_edge4"><a xlink:href="#FeatureHasPossibleRealisations" xlink:title="has possible realisations">
<path fill="none" stroke="black" d="M32.34,-268.18C41.08,-240.62 59.63,-185.4 81,-141 93.32,-115.42 110.19,-87.81 122.74,-68.35"/>
<polygon fill="black" stroke="black" points="125.81,-70.04 128.34,-59.76 119.95,-66.22 125.81,-70.04"/>
</a>
</g>
<g id="a_edge4&#45;label"><a xlink:href="#FeatureHasPossibleRealisations" xlink:title="has possible realisations">
<text text-anchor="middle" x="132" y="-157.6" font-family="Bitstream Vera Sans" font-size="8.00">has possible realisations</text>
</a>
</g>
</g>
<!-- FeatureRealisation -->
<g id="node3" class="node">
<title>FeatureRealisation</title>
<g id="a_node3"><a xlink:href="#FeatureRealisation" xlink:title="{Feature Realisation}">
<polygon fill="none" stroke="black" points="396,-268.5 396,-304.5 490,-304.5 490,-268.5 396,-268.5"/>
<text text-anchor="middle" x="443" y="-284.6" font-family="Bitstream Vera Sans" font-size="8.00">Feature Realisation</text>
</a>
</g>
</g>
<!-- FeatureRealisation&#45;&gt;FeatureValue -->
<g id="edge5" class="edge">
<title>FeatureRealisation&#45;&gt;FeatureValue</title>
<g id="a_edge5"><a xlink:href="#featureRealisationIsOfTypeFeatureValue" xlink:title="is of type&#10;has type">
<path fill="none" stroke="black" d="M421.69,-268.41C368.56,-225.8 230.1,-114.76 169.33,-66.02"/>
<polygon fill="black" stroke="black" points="171.27,-63.09 161.28,-59.57 166.89,-68.56 171.27,-63.09"/>
</a>
</g>
<g id="a_edge5&#45;label"><a xlink:href="#featureRealisationIsOfTypeFeatureValue" xlink:title="is of type&#10;has type">
<text text-anchor="middle" x="326" y="-162.1" font-family="Bitstream Vera Sans" font-size="8.00">is of type</text>
<text text-anchor="middle" x="326" y="-153.1" font-family="Bitstream Vera Sans" font-size="8.00">has type</text>
</a>
</g>
</g>
<!-- Dialect -->
<g id="node4" class="node">
<title>Dialect</title>
<g id="a_node4"><a xlink:href="#Dialect" xlink:title="{Dialect}">
<polygon fill="none" stroke="black" points="416,-141.5 416,-177.5 470,-177.5 470,-141.5 416,-141.5"/>
<text text-anchor="middle" x="443" y="-157.6" font-family="Bitstream Vera Sans" font-size="8.00">Dialect</text>
</a>
</g>
</g>
<!-- FeatureRealisation&#45;&gt;Dialect -->
<g id="edge6" class="edge">
<title>FeatureRealisation&#45;&gt;Dialect</title>
<g id="a_edge6"><a xlink:href="#featureRealisationIsRealisedInDialect" xlink:title="is realised in&#10;is attested for">
<path fill="none" stroke="black" d="M443,-268.38C443,-247.65 443,-212.45 443,-187.92"/>
<polygon fill="black" stroke="black" points="446.5,-187.81 443,-177.81 439.5,-187.81 446.5,-187.81"/>
</a>
</g>
<g id="a_edge6&#45;label"><a xlink:href="#featureRealisationIsRealisedInDialect" xlink:title="is realised in&#10;is attested for">
<text text-anchor="middle" x="472" y="-225.6" font-family="Bitstream Vera Sans" font-size="8.00">is realised in</text>
<text text-anchor="middle" x="472" y="-216.6" font-family="Bitstream Vera Sans" font-size="8.00">is attested for</text>
</a>
</g>
</g>
<!-- Source -->
<g id="node5" class="node">
<title>Source</title>
<g id="a_node5"><a xlink:href="#Source" xlink:title="{Source}">
<polygon fill="none" stroke="gray" points="715,-141.5 715,-177.5 769,-177.5 769,-141.5 715,-141.5"/>
<text text-anchor="middle" x="742" y="-157.6" font-family="Bitstream Vera Sans" font-size="8.00">Source</text>
</a>
</g>
</g>
<!-- FeatureRealisation&#45;&gt;Source -->
<g id="edge7" class="edge">
<title>FeatureRealisation&#45;&gt;Source</title>
<g id="a_edge7"><a xlink:href="#featureRealisationHasSource" xlink:title="asserted by">
<path fill="none" stroke="black" d="M483.95,-268.38C542.49,-243.91 649.21,-199.29 705.31,-175.84"/>
<polygon fill="black" stroke="black" points="706.97,-178.94 714.84,-171.85 704.27,-172.48 706.97,-178.94"/>
</a>
</g>
<g id="a_edge7&#45;label"><a xlink:href="#featureRealisationHasSource" xlink:title="asserted by">
<text text-anchor="middle" x="635.5" y="-221.1" font-family="Bitstream Vera Sans" font-size="8.00">asserted by</text>
</a>
</g>
</g>
<!-- Place -->
<g id="node9" class="node">
<title>Place</title>
<g id="a_node9"><a xlink:href="#Place" xlink:title="{Place}">
<polygon fill="none" stroke="black" points="360,-23.5 360,-59.5 414,-59.5 414,-23.5 360,-23.5"/>
<text text-anchor="middle" x="387" y="-39.6" font-family="Bitstream Vera Sans" font-size="8.00">Place</text>
</a>
</g>
</g>
<!-- Dialect&#45;&gt;Place -->
<g id="edge8" class="edge">
<title>Dialect&#45;&gt;Place</title>
<g id="a_edge8"><a xlink:href="#dialectIsSpokenAtLocation" xlink:title="is spoken at">
<path fill="none" stroke="black" d="M415.96,-145.44C400.6,-136.42 382.74,-122.83 374,-105 368.57,-93.92 370.32,-80.65 374.04,-69.19"/>
<polygon fill="black" stroke="black" points="377.37,-70.28 377.68,-59.69 370.83,-67.78 377.37,-70.28"/>
</a>
</g>
<g id="a_edge8&#45;label"><a xlink:href="#dialectIsSpokenAtLocation" xlink:title="is spoken at">
<text text-anchor="middle" x="398.5" y="-98.6" font-family="Bitstream Vera Sans" font-size="8.00">is spoken at</text>
</a>
</g>
</g>
<!-- Person -->
<g id="node10" class="node">
<title>Person</title>
<g id="a_node10"><a xlink:href="#Person" xlink:title="{Person}">
<polygon fill="none" stroke="black" points="486,-23.5 486,-59.5 540,-59.5 540,-23.5 486,-23.5"/>
<text text-anchor="middle" x="513" y="-39.6" font-family="Bitstream Vera Sans" font-size="8.00">Person</text>
</a>
</g>
</g>
<!-- Dialect&#45;&gt;Person -->
<g id="edge9" class="edge">
<title>Dialect&#45;&gt;Person</title>
<g id="a_edge9"><a xlink:href="#dialectHasPersonInCharge" xlink:title="has person in charge">
<path fill="none" stroke="black" d="M453.33,-141.38C464.96,-122.11 483.99,-90.57 497.43,-68.31"/>
<polygon fill="black" stroke="black" points="500.46,-70.06 502.63,-59.69 494.47,-66.44 500.46,-70.06"/>
</a>
</g>
<g id="a_edge9&#45;label"><a xlink:href="#dialectHasPersonInCharge" xlink:title="has person in charge">
<text text-anchor="middle" x="524.5" y="-98.6" font-family="Bitstream Vera Sans" font-size="8.00">has person in charge</text>
</a>
</g>
</g>
<!-- BibliographicItem -->
<g id="node6" class="node">
<title>BibliographicItem</title>
<g id="a_node6"><a xlink:href="#BibliographicItem" xlink:title="{Bibligraphic Item}">
<polygon fill="none" stroke="gray" points="627.5,-23.5 627.5,-59.5 712.5,-59.5 712.5,-23.5 627.5,-23.5"/>
<text text-anchor="middle" x="670" y="-39.6" font-family="Bitstream Vera Sans" font-size="8.00">Bibligraphic Item</text>
</a>
</g>
</g>
<!-- Source&#45;&gt;BibliographicItem -->
<g id="edge1" class="edge">
<title>Source&#45;&gt;BibliographicItem</title>
<path fill="none" stroke="gray" stroke-dasharray="1,5" d="M714.92,-146.33C698.66,-137.43 679.37,-123.64 670,-105 664.59,-94.24 663.87,-81.06 664.79,-69.58"/>
<polygon fill="gray" stroke="gray" points="668.27,-69.98 666.01,-59.63 661.32,-69.13 668.27,-69.98"/>
<text text-anchor="middle" x="697" y="-98.6" font-family="Bitstream Vera Sans" font-size="8.00" fill="gray">has subclass</text>
</g>
<!-- Campaign -->
<g id="node7" class="node">
<title>Campaign</title>
<g id="a_node7"><a xlink:href="#Campaign" xlink:title="{Campaign}">
<polygon fill="none" stroke="gray" points="785,-23.5 785,-59.5 843,-59.5 843,-23.5 785,-23.5"/>
<text text-anchor="middle" x="814" y="-39.6" font-family="Bitstream Vera Sans" font-size="8.00">Campaign</text>
</a>
</g>
</g>
<!-- Source&#45;&gt;Campaign -->
<g id="edge2" class="edge">
<title>Source&#45;&gt;Campaign</title>
<path fill="none" stroke="gray" stroke-dasharray="1,5" d="M752.62,-141.38C764.59,-122.11 784.16,-90.57 797.98,-68.31"/>
<polygon fill="gray" stroke="gray" points="801.03,-70.03 803.33,-59.69 795.09,-66.34 801.03,-70.03"/>
<text text-anchor="middle" x="808" y="-98.6" font-family="Bitstream Vera Sans" font-size="8.00" fill="gray">has subclass</text>
</g>
<!-- PersonalCommunication -->
<g id="node8" class="node">
<title>PersonalCommunication</title>
<g id="a_node8"><a xlink:href="#PersonalCommunication" xlink:title="{Personal Communication}">
<polygon fill="none" stroke="gray" points="915.5,-23.5 915.5,-59.5 1032.5,-59.5 1032.5,-23.5 915.5,-23.5"/>
<text text-anchor="middle" x="974" y="-39.6" font-family="Bitstream Vera Sans" font-size="8.00">Personal Communication</text>
</a>
</g>
</g>
<!-- Source&#45;&gt;PersonalCommunication -->
<g id="edge3" class="edge">
<title>Source&#45;&gt;PersonalCommunication</title>
<path fill="none" stroke="gray" stroke-dasharray="1,5" d="M769.02,-145.73C791.56,-135.02 824.48,-119.24 853,-105 879.61,-91.72 909.29,-76.4 932.59,-64.25"/>
<polygon fill="gray" stroke="gray" points="934.27,-67.32 941.51,-59.59 931.03,-61.12 934.27,-67.32"/>
<text text-anchor="middle" x="896" y="-98.6" font-family="Bitstream Vera Sans" font-size="8.00" fill="gray">has subclass</text>
</g>
<!-- Group -->
<g id="node11" class="node">
<title>Group</title>
<g id="a_node11"><a xlink:href="#Group" xlink:title="{Speaker Group}">
<polygon fill="none" stroke="black" points="562,-268.5 562,-304.5 638,-304.5 638,-268.5 562,-268.5"/>
<text text-anchor="middle" x="600" y="-284.6" font-family="Bitstream Vera Sans" font-size="8.00">Speaker Group</text>
</a>
</g>
</g>
</g>
</svg>
